<svg xmlns="http://www.w3.org/2000/svg" version="1.1" xmlns:xlink="http://www.w3.org/1999/xlink" xmlns:svgjs="http://svgjs.dev/svgjs" width="1500" height="1500" viewBox="0 0 1500 1500"><rect width="1500" height="1500" fill="#000000"></rect><g transform="matrix(0.6666666666666666,0,0,0.6666666666666666,249.39393939393938,570.071659751353)"><svg viewBox="0 0 396 142" data-background-color="#21232b" preserveAspectRatio="xMidYMid meet" height="537" width="1500" xmlns="http://www.w3.org/2000/svg" xmlns:xlink="http://www.w3.org/1999/xlink"><g id="tight-bounds" transform="matrix(1,0,0,1,0.2400000000000091,0.3682243444354185)"><svg viewBox="0 0 395.52 141.26355131112916" height="141.26355131112916" width="395.52"><g><svg viewBox="0 0 684.3767596800001 244.43136" height="141.26355131112916" width="395.52"><g transform="matrix(1,0,0,1,288.85675968,28.12437109947645)"><svg viewBox="0 0 395.52000000000004 188.18261780104712" height="188.18261780104712" width="395.52000000000004"><g id="textblocktransform"><svg viewBox="0 0 395.52000000000004 188.18261780104712" height="188.18261780104712" width="395.52000000000004" id="textblock"><g><svg viewBox="0 0 395.52000000000004 188.18261780104712" height="188.18261780104712" width="395.52000000000004"><g transform="matrix(1,0,0,1,0,0)"><svg width="395.52000000000004" viewBox="3.9 -35.8 76.39999999999999 36.349999999999994" height="188.18261780104712" data-palette-color="#f4f3f0"><path d="M3.9 0L3.9-35 16.2-35Q20.95-35 23.28-32.1 25.6-29.2 25.6-24.3L25.6-24.3Q25.6-21.15 25.1-18.63 24.6-16.1 22.6-14.18 20.6-12.25 16.55-12.25L16.55-12.25 6.7-12.25 6.7 0 3.9 0ZM16.6-15Q19.4-15 20.78-16.5 22.15-18 22.48-19.9 22.8-21.8 22.8-24.15L22.8-24.15Q22.8-28.25 21.1-30.3 19.4-32.35 16.4-32.35L16.4-32.35 6.7-32.35 6.7-15 16.6-15ZM51.4-9.25Q51.4-4.2 48.32-1.83 45.25 0.55 40.95 0.55L40.95 0.55Q38.25 0.55 35.85-0.43 33.45-1.4 31.92-3.6 30.4-5.8 30.4-9.25L30.4-9.25 30.4-25.35Q30.4-30.5 33.22-33.15 36.05-35.8 41-35.8L41-35.8Q45.95-35.8 48.67-33 51.4-30.2 51.4-25.3L51.4-25.3 51.4-9.25ZM48.65-25.8Q48.65-29.45 46.52-31.3 44.4-33.15 40.9-33.15L40.9-33.15Q37.4-33.15 35.3-31.3 33.2-29.45 33.2-25.8L33.2-25.8 33.2-9.3Q33.2-5.75 35.37-3.93 37.55-2.1 40.9-2.1L40.9-2.1Q44.3-2.1 46.47-3.88 48.65-5.65 48.65-9.35L48.65-9.35 48.65-25.8ZM59.4-8.9Q59.55-7.2 60.67-5.65 61.8-4.1 63.77-3.13 65.75-2.15 68.3-2.15L68.3-2.15Q72.15-2.15 74.72-3.88 77.3-5.6 77.3-9.35L77.3-9.35Q77.3-11.55 76.05-13.03 74.8-14.5 72.95-15.38 71.1-16.25 67.9-17.4L67.9-17.4Q64.45-18.6 62.37-19.63 60.3-20.65 58.87-22.4 57.45-24.15 57.45-26.9L57.45-26.9Q57.45-29.1 58.7-31.08 59.95-33.05 62.47-34.27 65-35.5 68.7-35.5L68.7-35.5Q71.15-35.5 72.75-35.15 74.35-34.8 76-34L76-34 75.15-31.35Q72.3-32.8 68.8-32.8L68.8-32.8Q64.95-32.8 62.65-31.2 60.35-29.6 60.35-26.75L60.35-26.75Q60.35-24.95 61.5-23.73 62.65-22.5 64.32-21.75 66-21 69-19.95L69-19.95Q72.65-18.7 74.9-17.63 77.15-16.55 78.72-14.58 80.3-12.6 80.3-9.6L80.3-9.6Q80.3-5 77.37-2.23 74.45 0.55 68.35 0.55L68.35 0.55Q64.65 0.55 62.02-0.83 59.4-2.2 58.02-4.38 56.65-6.55 56.55-8.9L56.55-8.9 59.4-8.9Z" opacity="1" transform="matrix(1,0,0,1,0,0)" fill="#ffffff" class="wordmark-text-0" data-fill-palette-color="primary" id="text-0"></path></svg></g></svg></g></svg></g></svg></g><g><svg viewBox="0 0 244.43136 244.43136" height="244.43136" width="244.43136"><g data-palette-color="#2f84ff"><rect width="66.8112384" height="244.43136" fill="#ffffff" stroke="transparent" data-fill-palette-color="accent" x="0" fill-opacity="0.5"></rect><rect width="66.8112384" height="244.43136" fill="#ffffff" stroke="transparent" data-fill-palette-color="accent" x="81.47712" fill-opacity="0.75"></rect><rect width="66.8112384" height="244.43136" fill="#ffffff" stroke="transparent" data-fill-palette-color="accent" x="162.95424" fill-opacity="1"></rect></g></svg></g></svg></g><defs></defs></svg><rect width="395.52" height="141.26355131112916" fill="none" stroke="none" visibility="hidden"></rect></g></svg></g></svg>